# xmcd
#
# Track frame offsets: 
#        150
#        15222
#        29440
#        39533
#        52427
#        73405
#        94941
#        111952
#        132812
#        151674
#        170406
#        186124
#
# Disc length: 2663 seconds
#
# Revision: 0
# Processed by: cddbd v1.5.2PL0 Copyright (c) Steve Scherf et al.
# Submitted via: ExactAudioCopy v0.95b3
#
DISCID=a10a650c
DTITLE=The Hollyfelds - Saratoga
DYEAR=2008
DGENRE=Country
TTITLE0=The Empress of Wyoming
TTITLE1=Indecision
TTITLE2=What It Feels Like
TTITLE3=I'm Gonna Feel Tonight
TTITLE4=It's a Good Thing
TTITLE5=Sorry I Missed You
TTITLE6=Burned
TTITLE7=Stars at Night
TTITLE8=Some People
TTITLE9=Mary Lou
TTITLE10=Old Carbon
TTITLE11=I Will Wait
EXTD=
EXTT0=
EXTT1=
EXTT2=
EXTT3=
EXTT4=
EXTT5=
EXTT6=
EXTT7=
EXTT8=
EXTT9=
EXTT10=
EXTT11=
PLAYORDER=
